<svg xmlns="http://www.w3.org/2000/svg" version="1.1" xmlns:xlink="http://www.w3.org/1999/xlink" xmlns:svgjs="http://svgjs.dev/svgjs" width="1500" height="1500" viewBox="0 0 1500 1500"><rect width="1500" height="1500" fill="#ffffff"></rect><g transform="matrix(0.6666666666666666,0,0,0.6666666666666666,249.39393939393932,571.4330763302635)"><svg viewBox="0 0 396 141" data-background-color="#7902f5" preserveAspectRatio="xMidYMid meet" height="534" width="1500" xmlns="http://www.w3.org/2000/svg" xmlns:xlink="http://www.w3.org/1999/xlink"><g id="tight-bounds" transform="matrix(1,0,0,1,0.24000000000003752,0.22453999278889114)"><svg viewBox="0 0 395.5199999999999 140.5509200144222" height="140.5509200144222" width="395.5199999999999"><g><svg viewBox="0 0 687.8467355267381 244.43135999999998" height="140.5509200144222" width="395.5199999999999"><g transform="matrix(1,0,0,1,0,20.77509407271775)"><svg viewBox="0 0 395.52 202.88117185456449" height="202.88117185456449" width="395.52"><g id="textblocktransform"><svg viewBox="0 0 395.52 202.88117185456449" height="202.88117185456449" width="395.52" id="textblock"><g><svg viewBox="0 0 395.52 202.88117185456449" height="202.88117185456449" width="395.52"><g transform="matrix(1,0,0,1,0,0)"><svg width="395.52" viewBox="3.52 -44.85 93.32000000000001 47.88" height="202.88117185456449" data-palette-color="#e1e1e3"><path d="M8.57 0L3.52 0 3.52-42.97 12.52-42.97Q15.94-42.97 17.58-41.76 19.21-40.55 19.71-38.12 20.21-35.69 20.21-32.01L20.21-32.01Q20.21-28.03 19.41-25.68 18.6-23.34 16.28-22.66L16.28-22.66Q17.46-22.46 18.23-21.66 18.99-20.85 19.43-19.14 19.87-17.43 20.06-14.56 20.24-11.69 20.24-7.35L20.24-7.35Q20.24-6.93 20.24-6.15 20.24-5.37 20.26-4.44 20.29-3.52 20.32-2.61 20.36-1.71 20.43-1.01 20.51-0.32 20.63 0L20.63 0 15.6 0Q15.5-0.22 15.43-0.98 15.36-1.73 15.31-2.98 15.26-4.22 15.23-5.94 15.21-7.67 15.21-9.8 15.21-11.94 15.21-14.48L15.21-14.48Q15.21-16.92 15-18.2 14.79-19.48 14.03-19.98 13.26-20.48 11.57-20.58L11.57-20.58 8.57-20.75 8.57 0ZM8.57-38.96L8.57-24.46 11.79-24.46Q13.18-24.46 13.93-25.01 14.67-25.56 14.94-27.21 15.21-28.86 15.21-32.15L15.21-32.15 15.21-32.45Q15.21-35.18 14.95-36.58 14.7-37.99 13.96-38.48 13.23-38.96 11.74-38.96L11.74-38.96 8.57-38.96ZM39.43 0L26.44 0 26.44-42.97 31.49-42.97 31.49-4.17 39.43-4.17 39.43 0ZM48.97 3.03L44.16 3.03 44.16-44.85 48.97-44.85 48.97 3.03ZM64.42 0L56.51 0 56.51-42.97 64.59-42.97Q67.96-42.97 69.84-41.56 71.72-40.16 72.48-37.55 73.23-34.94 73.23-31.3L73.23-31.3 73.26-12.43Q73.26-8.08 72.39-5.33 71.53-2.59 69.58-1.29 67.64 0 64.42 0L64.42 0ZM61.54-38.96L61.54-4.08 64.13-4.08Q65.5-4.08 66.4-4.68 67.3-5.27 67.75-6.91 68.21-8.54 68.21-11.65L68.21-11.65 68.21-31.42Q68.21-35.47 67.25-37.22 66.3-38.96 64.13-38.96L64.13-38.96 61.54-38.96ZM90.32 0L84.44 0 77.28-42.97 82.09-42.97 84.95-24.78 87.39-8.79 87.49-8.79 89.61-24.78 92.08-42.97 96.84-42.97 90.32 0Z" opacity="1" transform="matrix(1,0,0,1,0,0)" fill="#000000" class="wordmark-text-0" data-fill-palette-color="primary" id="text-0"></path></svg></g></svg></g></svg></g></svg></g><g transform="matrix(1,0,0,1,443.41537552673816,0)"><svg viewBox="0 0 244.43135999999998 244.43135999999998" height="244.43135999999998" width="244.43135999999998"><g data-palette-color="#ead6fb"><rect width="66.8112384" height="244.43135999999998" fill="#000000" stroke="transparent" data-fill-palette-color="accent" x="0" fill-opacity="1"></rect><rect width="66.8112384" height="244.43135999999998" fill="#000000" stroke="transparent" data-fill-palette-color="accent" x="81.47711999999999" fill-opacity="0.75"></rect><rect width="66.8112384" height="244.43135999999998" fill="#000000" stroke="transparent" data-fill-palette-color="accent" x="162.95423999999997" fill-opacity="0.5"></rect></g></svg></g></svg></g><defs></defs></svg><rect width="395.5199999999999" height="140.5509200144222" fill="none" stroke="none" visibility="hidden"></rect></g></svg></g></svg>